<?xml version="1.0" encoding="UTF-8"?>
<svg id="Layer_1" data-name="Layer 1" xmlns="http://www.w3.org/2000/svg" viewBox="0 0 250 250">
  <defs>
    <style>
      .cls-1 {
        fill: #fff;
      }

      .cls-2 {
        fill: #1E40B0;
      }
    </style>
  </defs>
  <rect class="cls-2" width="250" height="250" rx="48.02" ry="48.02"/>
  <path class="cls-1" d="m143.07,83.3l-12.37,16.92-37.41-27.35c-12.37-9.05-29.91-7.02-39.33,5.07-9.78,12.57-7.17,30.72,5.6,40.04l37.9,27.71-12.5,17.1c-4.14,5.66-12.03,7.35-17.88,3.5-4.81-3.16-6.79-8.92-5.47-14.12.77-2.99-.23-6.16-2.71-7.97l-.39-.29c-4.1-3-10.01-1.05-11.39,3.83-3.16,11.25.91,23.84,11.18,30.9,12.64,8.67,29.97,5.27,39.01-7.1l12.37-16.92,27.66,20.22c7.97,5.83,18.31,6.15,26.45,1.67,4.68-2.57,5.04-9.18.72-12.34l-.4-.29c-2.3-1.68-5.33-1.82-7.85-.51-3.1,1.61-6.98,1.44-9.98-.75l-27.66-20.22,15.37-21.03,46.84,34.24c6.23,4.56,8.5,12.55,6.11,19.5-1.04,3,.08,6.33,2.64,8.21l.38.28c4,2.92,9.68,1.13,11.3-3.56,4.49-13.05.23-28.08-11.49-36.64l-46.84-34.24,12.51-17.1c4.13-5.65,12.04-7.35,17.88-3.5,4.81,3.16,6.8,8.93,5.46,14.14-.76,2.99.23,6.14,2.73,7.97l.39.29c4.09,2.99,10.01,1.06,11.38-3.83,3.17-11.27-.91-23.85-11.18-30.9-12.64-8.68-29.98-5.29-39.02,7.08Zm-21.31,29.15l-15.37,21.03-37.9-27.71c-5.8-4.23-7.06-12.4-2.82-18.2,4.23-5.8,12.4-7.06,18.19-2.83l37.9,27.71Z"/>
</svg>